<svg width="243" height="27" viewBox="0 0 243 27" fill="none" xmlns="http://www.w3.org/2000/svg">
<path fill-rule="evenodd" clip-rule="evenodd" d="M12.1333 8.3C12.1333 6.23131 12.9551 4.24735 14.4179 2.78457C15.8807 1.32178 17.8646 0.5 19.9333 0.5L26 0.5V6.56667C26 8.63535 25.1782 10.6193 23.7154 12.0821C22.2526 13.5449 20.2687 14.3667 18.2 14.3667H13.8667V26.5H12.1333V19.5667H7.8C5.73131 19.5667 3.74735 18.7449 2.28457 17.2821C0.821783 15.8193 0 13.8354 0 11.7667L0 5.7H6.06667C8.5176 5.7 10.7033 6.83013 12.1333 8.5964V8.3ZM14.1197 11.1531L19.3197 5.95307L20.5469 7.18027L15.3469 12.3803L14.1197 11.1531ZM10.6531 17.5803L5.45307 12.3803L6.68027 11.1531L11.8803 16.3531L10.6531 17.5803Z" fill="#DCE7CF"/>
<path d="M51.78 7.6H54.31V23H52.33L45.07 12.55V23H42.54V7.6H44.52L51.78 18.05V7.6ZM58.4857 7.6H61.0157V23H58.4857V7.6ZM73.9711 23L70.7151 17.39H67.7231V23H65.1931V7.6H71.3531C72.7318 7.6 73.8978 8.084 74.8511 9.052C75.8191 10.0053 76.3031 11.1713 76.3031 12.55C76.3031 13.5327 76.0171 14.4347 75.4451 15.256C74.8878 16.0627 74.1545 16.6493 73.2451 17.016L76.7431 23H73.9711ZM67.7231 9.976V15.124H71.3531C72.0278 15.124 72.5998 14.8747 73.0691 14.376C73.5385 13.8773 73.7731 13.2687 73.7731 12.55C73.7731 11.8313 73.5385 11.2227 73.0691 10.724C72.5998 10.2253 72.0278 9.976 71.3531 9.976H67.7231ZM83.4865 23L78.1405 7.6H80.9125L85.0045 19.942L89.1185 7.6H91.8685L86.5225 23H83.4865ZM103.765 23L102.687 19.898H96.131L95.053 23H92.303L97.891 7.6H100.927L106.493 23H103.765ZM96.967 17.522H101.851L99.409 10.57L96.967 17.522ZM118.489 7.6H121.019V23H119.039L111.779 12.55V23H109.249V7.6H111.229L118.489 18.05V7.6ZM125.195 7.6H127.725V23H125.195V7.6ZM153.484 15.036V16.092C153.484 18.204 152.787 19.9347 151.394 21.284C150.001 22.6187 148.182 23.286 145.938 23.286C143.562 23.286 141.597 22.516 140.042 20.976C138.502 19.436 137.732 17.544 137.732 15.3C137.732 13.0707 138.502 11.186 140.042 9.646C141.597 8.09133 143.518 7.314 145.806 7.314C147.243 7.314 148.556 7.644 149.744 8.304C150.932 8.964 151.856 9.85133 152.516 10.966L150.338 12.22C149.927 11.4867 149.319 10.9 148.512 10.46C147.705 10.0053 146.803 9.778 145.806 9.778C144.193 9.778 142.865 10.306 141.824 11.362C140.783 12.418 140.262 13.738 140.262 15.322C140.262 16.906 140.783 18.2187 141.824 19.26C142.88 20.3013 144.259 20.822 145.96 20.822C147.324 20.822 148.431 20.5067 149.282 19.876C150.147 19.2307 150.697 18.3727 150.932 17.302H145.784V15.036H153.484ZM166.349 23L165.271 19.898H158.715L157.637 23H154.887L160.475 7.6H163.511L169.077 23H166.349ZM159.551 17.522H164.435L161.993 10.57L159.551 17.522ZM180.611 23L177.355 17.39H174.363V23H171.833V7.6H177.993C179.372 7.6 180.538 8.084 181.491 9.052C182.459 10.0053 182.943 11.1713 182.943 12.55C182.943 13.5327 182.657 14.4347 182.085 15.256C181.528 16.0627 180.794 16.6493 179.885 17.016L183.383 23H180.611ZM174.363 9.976V15.124H177.993C178.668 15.124 179.24 14.8747 179.709 14.376C180.178 13.8773 180.413 13.2687 180.413 12.55C180.413 11.8313 180.178 11.2227 179.709 10.724C179.24 10.2253 178.668 9.976 177.993 9.976H174.363ZM192.475 7.6C194.587 7.6 196.34 8.34067 197.733 9.822C199.141 11.3033 199.845 13.1293 199.845 15.3C199.845 17.456 199.141 19.282 197.733 20.778C196.34 22.2593 194.587 23 192.475 23H186.425V7.6H192.475ZM192.475 20.58C193.927 20.58 195.108 20.0813 196.017 19.084C196.941 18.0867 197.403 16.8253 197.403 15.3C197.403 13.76 196.941 12.4987 196.017 11.516C195.108 10.5187 193.927 10.02 192.475 10.02H188.955V20.58H192.475ZM205.782 20.58H212.602V23H203.252V7.6H212.492V10.02H205.782V14.024H211.942V16.422H205.782V20.58ZM225.258 7.6H227.788V23H225.808L218.548 12.55V23H216.018V7.6H217.998L225.258 18.05V7.6ZM236.875 23.286C235.393 23.286 234.132 22.9487 233.091 22.274C232.064 21.5993 231.345 20.6753 230.935 19.502L233.113 18.226C233.729 19.9567 235.005 20.822 236.941 20.822C237.894 20.822 238.605 20.6387 239.075 20.272C239.559 19.8907 239.801 19.3993 239.801 18.798C239.801 18.1673 239.544 17.6907 239.031 17.368C238.517 17.0307 237.608 16.664 236.303 16.268C235.569 16.048 234.975 15.8427 234.521 15.652C234.066 15.4613 233.582 15.1973 233.069 14.86C232.57 14.508 232.196 14.0753 231.947 13.562C231.697 13.0487 231.573 12.4473 231.573 11.758C231.573 10.394 232.057 9.316 233.025 8.524C233.993 7.71733 235.159 7.314 236.523 7.314C237.755 7.314 238.833 7.61467 239.757 8.216C240.681 8.81733 241.392 9.646 241.891 10.702L239.757 11.934C239.111 10.4967 238.033 9.778 236.523 9.778C235.789 9.778 235.203 9.954 234.763 10.306C234.323 10.6433 234.103 11.1053 234.103 11.692C234.103 12.264 234.323 12.7187 234.763 13.056C235.217 13.3787 236.031 13.7233 237.205 14.09C237.791 14.2807 238.217 14.4273 238.481 14.53C238.759 14.618 239.141 14.7647 239.625 14.97C240.123 15.1753 240.497 15.3807 240.747 15.586C240.996 15.7913 241.26 16.048 241.539 16.356C241.832 16.664 242.037 17.016 242.155 17.412C242.272 17.808 242.331 18.2553 242.331 18.754C242.331 20.1473 241.825 21.2547 240.813 22.076C239.815 22.8827 238.503 23.286 236.875 23.286Z" fill="#DCE7CF"/>
</svg>
